<?xml version="1.0" encoding="UTF-8"?>
<svg width="20px" height="20px" viewBox="0 0 20 20" version="1.1" xmlns="http://www.w3.org/2000/svg" xmlns:xlink="http://www.w3.org/1999/xlink">
    <!-- Generator: Sketch 52.1 (67048) - http://www.bohemiancoding.com/sketch -->
    <title>粉丝管理-未选中</title>
    <desc>Created with Sketch.</desc>
    <g id="粉丝管理-未选中" stroke="none" stroke-width="1" fill="none" fill-rule="evenodd">
        <g>
            <rect id="Rectangle-3" opacity="0.200000003" x="0" y="0" width="20" height="20"></rect>
            <path d="M4.93439558,17.4401184 C6.37736956,18.4244702 8.12147368,19 10,19 C14.9705627,19 19,14.9705627 19,10 C19,8.12147368 18.4244702,6.37736956 17.4401184,4.93439558 C17.3009411,4.97704782 17.153151,5 17,5 C16.1715729,5 15.5,4.32842712 15.5,3.5 C15.5,3.30792711 15.5361008,3.124286 15.6018872,2.95549182 C14.0646654,1.73144811 12.1177521,1 10,1 C5.02943725,1 1,5.02943725 1,10 C1,12.1177521 1.73144811,14.0646654 2.95549182,15.6018872 C3.124286,15.5361008 3.30792711,15.5 3.5,15.5 C4.32842712,15.5 5,16.1715729 5,17 C5,17.153151 4.97704782,17.3009411 4.93439558,17.4401184 Z M4.33833812,18.2440438 C4.09900062,18.4056458 3.81051911,18.5 3.5,18.5 C2.67157288,18.5 2,17.8284271 2,17 C2,16.7289947 2.07186876,16.4747752 2.19758687,16.255361 C0.822613004,14.5425403 0,12.3673359 0,10 C0,4.4771525 4.4771525,0 10,0 C12.3673359,0 14.5425403,0.822613004 16.255361,2.19758687 C16.4747752,2.07186876 16.7289947,2 17,2 C17.8284271,2 18.5,2.67157288 18.5,3.5 C18.5,3.81051911 18.4056458,4.09900062 18.2440438,4.33833812 C19.3516478,5.94806112 20,7.89831518 20,10 C20,15.5228475 15.5228475,20 10,20 C7.89831518,20 5.94806112,19.3516478 4.33833812,18.2440438 Z M10,16 C13.3137085,16 16,13.3137085 16,10 C16,6.6862915 13.3137085,4 10,4 C6.6862915,4 4,6.6862915 4,10 C4,13.3137085 6.6862915,16 10,16 Z M10,17 C6.13400675,17 3,13.8659932 3,10 C3,6.13400675 6.13400675,3 10,3 C13.8659932,3 17,6.13400675 17,10 C17,13.8659932 13.8659932,17 10,17 Z M17,4 C17.2761424,4 17.5,3.77614237 17.5,3.5 C17.5,3.22385763 17.2761424,3 17,3 C16.7238576,3 16.5,3.22385763 16.5,3.5 C16.5,3.77614237 16.7238576,4 17,4 Z M3.5,17.5 C3.77614237,17.5 4,17.2761424 4,17 C4,16.7238576 3.77614237,16.5 3.5,16.5 C3.22385763,16.5 3,16.7238576 3,17 C3,17.2761424 3.22385763,17.5 3.5,17.5 Z M10,11 C11.1045695,11 12,10.1045695 12,9 C12,7.8954305 11.1045695,7 10,7 C8.8954305,7 8,7.8954305 8,9 C8,10.1045695 8.8954305,11 10,11 Z M10,12 C8.34314575,12 7,10.6568542 7,9 C7,7.34314575 8.34314575,6 10,6 C11.6568542,6 13,7.34314575 13,9 C13,10.6568542 11.6568542,12 10,12 Z M8.5,13 L11.5,13 C11.7761424,13 12,13.2238576 12,13.5 C12,13.7761424 11.7761424,14 11.5,14 L8.5,14 C8.22385763,14 8,13.7761424 8,13.5 C8,13.2238576 8.22385763,13 8.5,13 Z" id="合并形状" fill="#A5A7AC" fill-rule="nonzero"></path>
        </g>
    </g>
</svg>