<?xml version="1.0" encoding="UTF-8"?>
<svg width="20px" height="20px" viewBox="0 0 20 20" version="1.1" xmlns="http://www.w3.org/2000/svg" xmlns:xlink="http://www.w3.org/1999/xlink">
    <!-- Generator: Sketch 52.1 (67048) - http://www.bohemiancoding.com/sketch -->
    <title>标签画像-选中</title>
    <desc>Created with Sketch.</desc>
    <g id="标签画像-选中" stroke="none" stroke-width="1" fill="none" fill-rule="evenodd">
        <g>
            <rect id="Rectangle" opacity="0.200000003" x="0" y="0" width="20" height="20" rx="1"></rect>
            <path d="M9,16 L2,16 C1.44771525,16 1,15.5522847 1,15 L1,4 L0.5,4 C0.223857625,4 -2.06023576e-13,3.77614237 -2.06057393e-13,3.5 C-2.06091211e-13,3.22385763 0.223857625,3 0.5,3 L9.5,3 L9.5,2.5 C9.5,2.22385763 9.72385763,2 10,2 C10.2761424,2 10.5,2.22385763 10.5,2.5 L10.5,3 L19.5,3 C19.7761424,3 20,3.22385763 20,3.5 C20,3.77614237 19.7761424,4 19.5,4 L19,4 L19,15 C19,15.5522847 18.5522847,16 18,16 L11,16 L13.1819805,18.1819805 C13.3772427,18.3772427 13.3772427,18.6938252 13.1819805,18.8890873 C12.9867184,19.0843494 12.6701359,19.0843494 12.4748737,18.8890873 L10,16.4142136 L7.52512627,18.8890873 C7.32986412,19.0843494 7.01328163,19.0843494 6.81801948,18.8890873 C6.62275734,18.6938252 6.62275734,18.3772427 6.81801948,18.1819805 L9,16 Z M18,4 L2,4 L2,15 L18,15 L18,4 Z M3.5,5 L16.5,5 C16.7761424,5 17,5.22385763 17,5.5 L17,13.5 C17,13.7761424 16.7761424,14 16.5,14 L3.5,14 C3.22385763,14 3,13.7761424 3,13.5 L3,5.5 C3,5.22385763 3.22385763,5 3.5,5 Z" id="合并形状" fill="#FFFFFF" fill-rule="nonzero"></path>
        </g>
    </g>
</svg>