<?xml version="1.0" encoding="UTF-8"?>
<svg width="18px" height="17px" viewBox="0 0 18 17" version="1.1" xmlns="http://www.w3.org/2000/svg" xmlns:xlink="http://www.w3.org/1999/xlink">
    <!-- Generator: Sketch 54.1 (76490) - https://sketchapp.com -->
    <title>icon/push_nor@1.5x</title>
    <desc>Created with Sketch.</desc>
    <g id="Page-1" stroke="none" stroke-width="1" fill="none" fill-rule="evenodd">
        <g id="我的订单-/-待接单-copy-8复制-3" transform="translate(-478.000000, -93.000000)" fill="#969FAA" fill-rule="nonzero">
            <g id="icon/push_nor" transform="translate(477.000000, 91.000000)">
                <path d="M3.07815236,8.06984581 L5.06465664,10.0371339 C5.35087618,10.3205847 5.35424869,10.7835385 5.07218936,11.07117 C4.79013002,11.3588016 4.32944897,11.3621907 4.04322943,11.0787399 L1.33945529,8.40112039 C0.793408409,8.00859184 0.97864778,7.42183864 1.38565892,7.12918846 C1.57188783,6.99528569 4.7032719,6.04294947 18.0429403,2.02303338 C18.5184722,1.97410628 18.5184722,1.97410628 18.8858498,2.32276884 C18.9971839,2.57831787 18.9971839,2.57831787 19,2.68456183 C18.9968034,2.81056949 18.9968034,2.81056949 18.9883059,2.85310768 C18.976403,2.90857113 18.976403,2.90857113 18.9693768,2.93296244 C18.9574309,2.97274087 18.9574309,2.97274087 18.9456734,3.00819638 C18.9304288,3.05378329 18.9079918,3.11786764 18.8777473,3.20237232 C18.8194098,3.36537025 18.7305681,3.6083443 18.6109041,3.93220227 C18.372649,4.57701393 18.0114298,5.54455569 17.5270852,6.83526836 C16.5589316,9.41526645 15.0984302,13.2875567 13.1610301,18.406824 C13.0341946,18.822851 12.6441145,19.1143785 12.1310256,18.9564041 C11.8733462,18.8770675 11.8119274,18.818054 8.95753432,15.8049815 L6.40789616,17.9503905 C6.01763637,18.278777 5.43636528,18.227058 5.10959084,17.834873 C4.97069781,17.6681776 4.89458691,17.4576919 4.89458691,17.2402766 L4.89458691,13.2150277 C4.89458691,12.9196776 5.03475857,12.6420372 5.27193244,12.4676128 L11.9144682,7.58250595 C12.2387519,7.34401861 12.6940189,7.41486722 12.9313355,7.74075076 C13.168652,8.06663429 13.0981512,8.52414727 12.7738675,8.76263462 L6.34979499,13.4870775 L6.34979499,16.091936 L8.26756635,14.4782153 C8.71890871,14.0984305 9.38623528,14.1363666 9.79190406,14.5648321 C10.7890613,15.6174818 11.5435551,16.40878 12.0548003,16.9381289 C12.0809633,16.9652184 12.106482,16.9916142 12.1313553,17.0173154 C13.9111776,12.3092207 15.255907,8.74314402 16.165476,6.31926577 C16.5547297,5.28195741 16.8642228,4.45400489 17.0938711,3.83563816 C10.8500757,5.71900581 5.16602192,7.44385992 3.07815236,8.06984581 Z" id="Triangle"></path>
            </g>
        </g>
    </g>
</svg>