<?xml version="1.0" encoding="UTF-8"?>
<svg width="18px" height="17px" viewBox="0 0 18 17" version="1.1" xmlns="http://www.w3.org/2000/svg" xmlns:xlink="http://www.w3.org/1999/xlink">
    <!-- Generator: Sketch 54.1 (76490) - https://sketchapp.com -->
    <title>icon/push_sel@1.5x</title>
    <desc>Created with Sketch.</desc>
    <g id="Page-1" stroke="none" stroke-width="1" fill="none" fill-rule="evenodd">
        <g id="我的订单-/-待接单-copy-8复制-3" transform="translate(-478.000000, -146.000000)" fill="#32A6B8">
            <g id="icon/push_sel" transform="translate(477.000000, 145.000000)">
                <path d="M18.9180218,2.36761178 L13.2998748,17.3264878 C13.1056951,17.8435107 12.5291514,18.1052268 12.0121285,17.911047 C11.8759481,17.8599014 11.7525658,17.7796607 11.6505885,17.6759225 L8.94392076,14.922516 L5.87860756,17.3104855 C5.66076618,17.4801904 5.34659786,17.441168 5.17689299,17.2233267 C5.10847975,17.1355081 5.07132971,17.0273703 5.07132971,16.9160488 L5.07130281,12.6018318 C5.07130281,12.283703 5.22266728,11.9845541 5.47898174,11.7961162 C12.3138337,6.77125313 15.7490405,4.21554216 15.7846019,4.1289833 C15.8239924,4.03310415 15.7198062,3.99042929 15.6756835,4.01293779 C15.3550157,4.1765213 11.7835601,6.20982146 4.9613166,10.1128382 L4.96133699,10.1128739 C4.57145668,10.3359251 4.0806933,10.2716627 3.7613871,9.95574814 L1.32094415,7.54122709 C0.928340341,7.15279344 0.92495976,6.51963749 1.31339341,6.12703368 C1.43068645,6.0084814 1.57576657,5.921146 1.73542876,5.87297664 L17.6930323,1.05863989 C18.2217778,0.899119769 18.7797273,1.19843606 18.9392474,1.72718154 C19.0026113,1.93720749 18.995153,2.16224221 18.9180218,2.36761178 Z" id="Triangle-4"></path>
            </g>
        </g>
    </g>
</svg>