<?xml version="1.0" encoding="UTF-8"?>
<svg width="19px" height="18px" viewBox="0 0 19 18" version="1.1" xmlns="http://www.w3.org/2000/svg" xmlns:xlink="http://www.w3.org/1999/xlink">
    <!-- Generator: Sketch 54.1 (76490) - https://sketchapp.com -->
    <title>icon/shop_sel@1.5x</title>
    <desc>Created with Sketch.</desc>
    <g id="Page-1" stroke="none" stroke-width="1" fill="none" fill-rule="evenodd">
        <g id="我的订单-/-待接单-copy-8复制-3" transform="translate(-432.000000, -145.000000)" fill="#32A6B8">
            <g id="icon/shop" transform="translate(431.000000, 144.000000)">
                <path d="M3.78619244,10.4030431 L1.82822795,10.4030431 C1.37081028,10.4030431 1,10.0116345 1,9.52880754 C1,9.26987729 1.10873976,9.0242679 1.29691733,8.8581634 L9.96867938,1.20359144 C10.2762074,0.932136186 10.7237726,0.932136186 11.0313006,1.20359144 L19.7030627,8.8581634 C20.0539572,9.1678983 20.1005375,9.71924566 19.8071028,10.0896322 C19.6497397,10.2882629 19.4170558,10.4030431 19.171752,10.4030431 L17.2137875,10.4030431 L17.2137875,18.1257644 C17.2137875,18.6085914 16.8429773,19 16.3855596,19 L12.6528141,19 C12.1953964,19 11.8245862,18.6085914 11.8245862,18.1257644 L11.8245862,13.6035991 L9.17539383,13.6035991 L9.17539383,18.1257644 C9.17539383,18.6085914 8.80458354,19 8.34716588,19 L4.61442039,19 C4.15700273,19 3.78619244,18.6085914 3.78619244,18.1257644 L3.78619244,10.4030431 Z" id="Path"></path>
            </g>
        </g>
    </g>
</svg>