<?xml version="1.0" encoding="UTF-8"?>
<svg width="20px" height="18px" viewBox="0 0 20 18" version="1.1" xmlns="http://www.w3.org/2000/svg" xmlns:xlink="http://www.w3.org/1999/xlink">
    <!-- Generator: Sketch 54.1 (76490) - https://sketchapp.com -->
    <title>icon/shop_nor@1.5x</title>
    <desc>Created with Sketch.</desc>
    <g id="Page-1" stroke="none" stroke-width="1" fill="none" fill-rule="evenodd">
        <g id="我的订单-/-待接单-copy-8复制-3" transform="translate(-431.000000, -91.000000)" fill="#969FAA">
            <g id="icon/1half/home" transform="translate(431.000000, 90.000000)">
                <g id="Path-12">
                    <path d="M2.89080516,8.89136827 L3.75971241,8.89136827 C4.22915444,8.89136827 4.60971241,9.27192624 4.60971241,9.74136827 L4.60971241,17.25 L7.14058248,17.25 L7.14058248,12.8531983 C7.14058248,12.3837562 7.52114045,12.0031983 7.99058248,12.0031983 L12.0094155,12.0031983 C12.4788575,12.0031983 12.8594155,12.3837562 12.8594155,12.8531983 L12.8594155,17.25 L15.3902856,17.25 L15.3902856,9.74136827 C15.3902856,9.27192624 15.7708435,8.89136827 16.2402856,8.89136827 L17.1091928,8.89136827 L9.99999899,2.94632101 L2.89080516,8.89136827 Z M3.10971241,10.3913683 L1.1002779,10.3913683 C0.630835862,10.3913683 0.2502779,10.0108103 0.2502779,9.54136827 C0.2502779,9.2896161 0.361876161,9.05081549 0.555000447,8.88931575 L9.45472154,1.4469441 C9.7703337,1.18301414 10.2296643,1.18301414 10.5452764,1.4469441 L19.4449975,8.88931575 C19.8051162,9.19046417 19.852921,9.72652706 19.5517726,10.0866457 C19.3902729,10.27977 19.1514723,10.3913683 18.8997201,10.3913683 L16.8902856,10.3913683 L16.8902856,17.9 C16.8902856,18.369442 16.5097276,18.75 16.0402856,18.75 L12.2094155,18.75 C11.7399735,18.75 11.3594155,18.369442 11.3594155,17.9 L11.3594155,13.5031983 L8.64058248,13.5031983 L8.64058248,17.9 C8.64058248,18.369442 8.26002452,18.75 7.79058248,18.75 L3.95971241,18.75 C3.49027037,18.75 3.10971241,18.369442 3.10971241,17.9 L3.10971241,10.3913683 Z" fill-rule="nonzero"></path>
                </g>
            </g>
        </g>
    </g>
</svg>