<?xml version="1.0" encoding="UTF-8"?>
<svg width="18px" height="17px" viewBox="0 0 18 17" version="1.1" xmlns="http://www.w3.org/2000/svg" xmlns:xlink="http://www.w3.org/1999/xlink">
    <!-- Generator: Sketch 49.2 (51160) - http://www.bohemiancoding.com/sketch -->
    <title>Group 2</title>
    <desc>Created with Sketch.</desc>
    <defs></defs>
    <g id="Page-1" stroke="none" stroke-width="1" fill="none" fill-rule="evenodd">
        <g id="登录窗口全部状态展示" transform="translate(-470.000000, -97.000000)">
            <g id="Group-2" transform="translate(469.000000, 96.000000)">
                <rect id="Rectangle-12" x="0" y="0" width="20" height="20"></rect>
                <g id="Group" transform="translate(9.692388, 9.656854) rotate(45.000000) translate(-9.692388, -9.656854) translate(3.692388, 3.156854)" fill="#2E334A">
                    <path d="M1,0.843145751 L1,0.843145751 C1.55228475,0.843145751 2,1.290861 2,1.84314575 L2,11.8431458 C2,12.3954305 1.55228475,12.8431458 1,12.8431458 L1,12.8431458 C0.44771525,12.8431458 -4.88846639e-12,12.3954305 -4.88853402e-12,11.8431458 L-4.88853402e-12,1.84314575 C-4.88860166e-12,1.290861 0.44771525,0.843145751 1,0.843145751 Z" id="Rectangle-14"></path>
                    <path d="M1,10.8431458 L11,10.8431458 C11.5522847,10.8431458 12,11.290861 12,11.8431458 L12,11.8431458 C12,12.3954305 11.5522847,12.8431458 11,12.8431458 L1,12.8431458 C0.44771525,12.8431458 -2.20200613e-13,12.3954305 -2.20268248e-13,11.8431458 L-2.20268248e-13,11.8431458 C-2.20335883e-13,11.290861 0.44771525,10.8431458 1,10.8431458 Z" id="Rectangle-18"></path>
                </g>
                <rect id="Rectangle-15" fill="#2E334A" x="2" y="9" width="17" height="2" rx="1"></rect>
            </g>
        </g>
    </g>
</svg>