<?xml version="1.0" encoding="UTF-8"?>
<svg width="16px" height="16px" viewBox="0 0 16 16" version="1.1" xmlns="http://www.w3.org/2000/svg" xmlns:xlink="http://www.w3.org/1999/xlink">
    <!-- Generator: Sketch 48.2 (47327) - http://www.bohemiancoding.com/sketch -->
    <title>关闭@1x</title>
    <desc>Created with Sketch.</desc>
    <defs></defs>
    <g id="登录窗口全部状态展示" stroke="none" stroke-width="1" fill="none" fill-rule="evenodd" transform="translate(-336.000000, -686.000000)">
        <g id="登录-copy-5" transform="translate(49.000000, 551.000000)">
            <g id="Group-24" transform="translate(52.000000, 122.000000)">
                <g id="关闭" transform="translate(235.000000, 13.000000)">
                    <rect id="Rectangle" x="1" y="1" width="14" height="14"></rect>
                    <circle id="Oval" fill="#EBF0FB" cx="8" cy="8" r="8"></circle>
                    <path d="M7.5,7.5 L7.5,3.91421356 C7.5,3.63807119 7.72385763,3.41421356 8,3.41421356 C8.27614237,3.41421356 8.5,3.63807119 8.5,3.91421356 L8.5,7.5 L12.0857864,7.5 C12.3619288,7.5 12.5857864,7.72385763 12.5857864,8 C12.5857864,8.27614237 12.3619288,8.5 12.0857864,8.5 L8.5,8.5 L8.5,12.0857864 C8.5,12.3619288 8.27614237,12.5857864 8,12.5857864 C7.72385763,12.5857864 7.5,12.3619288 7.5,12.0857864 L7.5,8.5 L3.91421356,8.5 C3.63807119,8.5 3.41421356,8.27614237 3.41421356,8 C3.41421356,7.72385763 3.63807119,7.5 3.91421356,7.5 L7.5,7.5 Z" id="Combined-Shape" fill="#A5ABC6" transform="translate(8.000000, 8.000000) rotate(45.000000) translate(-8.000000, -8.000000) "></path>
                </g>
            </g>
        </g>
    </g>
</svg>