<?xml version="1.0" encoding="UTF-8"?>
<svg width="20px" height="20px" viewBox="0 0 20 20" version="1.1" xmlns="http://www.w3.org/2000/svg" xmlns:xlink="http://www.w3.org/1999/xlink">
    <!-- Generator: Sketch 49.2 (51160) - http://www.bohemiancoding.com/sketch -->
    <title>二维码</title>
    <desc>Created with Sketch.</desc>
    <defs></defs>
    <g id="Page-1" stroke="none" stroke-width="1" fill="none" fill-rule="evenodd">
        <g id="登录窗口全部状态展示" transform="translate(-358.000000, -96.000000)">
            <g id="Group-3" transform="translate(49.000000, 61.000000)">
                <g id="Group-2">
                    <g id="二维码" transform="translate(309.000000, 35.000000)">
                        <rect id="Rectangle-9" opacity="0.300000012" x="0" y="0" width="20" height="20"></rect>
                        <rect id="Rectangle-7" stroke="#2E334A" stroke-width="2" x="1.5" y="1.5" width="7" height="7" rx="1"></rect>
                        <rect id="Rectangle-7-Copy" stroke="#2E334A" stroke-width="2" x="11.5" y="1.5" width="7" height="7" rx="1"></rect>
                        <rect id="Rectangle-7" stroke="#2E334A" stroke-width="2" x="1.5" y="11.5" width="7" height="7" rx="1"></rect>
                        <path d="M11.5,10.5 L12.5,10.5 L12.5,19.5 L11.5,19.5 C10.9477153,19.5 10.5,19.0522847 10.5,18.5 L10.5,11.5 C10.5,10.9477153 10.9477153,10.5 11.5,10.5 Z" id="Rectangle-11" fill="#2E334A"></path>
                        <path d="M15.5,10.5 L16.5,10.5 L16.5,16 L15.5,16 C14.9477153,16 14.5,15.5522847 14.5,15 L14.5,11.5 C14.5,10.9477153 14.9477153,10.5 15.5,10.5 Z" id="Rectangle-11-Copy" fill="#2E334A"></path>
                        <path d="M17.5,10.5 L18.5,10.5 C19.0522847,10.5 19.5,10.9477153 19.5,11.5 L19.5,15 C19.5,15.5522847 19.0522847,16 18.5,16 L17.5,16 L17.5,10.5 Z" id="Rectangle-11" fill="#2E334A"></path>
                        <rect id="Rectangle-12" fill="#2E334A" x="14.5" y="14" width="5" height="2" rx="1"></rect>
                        <rect id="Rectangle-12-Copy" fill="#2E334A" x="10.5" y="10.5" width="6" height="4" rx="1"></rect>
                        <circle id="Oval-9" fill="#2E334A" cx="5" cy="5" r="1"></circle>
                        <circle id="Oval-9-Copy" fill="#2E334A" cx="15" cy="5" r="1"></circle>
                        <circle id="Oval-9" fill="#2E334A" cx="5" cy="15" r="1"></circle>
                        <path d="M17.5,17.5 L19.5,17.5 L19.5,18.5 C19.5,19.0522847 19.0522847,19.5 18.5,19.5 L17.5,19.5 L17.5,17.5 Z" id="Rectangle-20" fill="#2E334A"></path>
                        <rect id="Rectangle-20" fill="#2E334A" x="14.5" y="17.5" width="2" height="2" rx="1"></rect>
                    </g>
                </g>
            </g>
        </g>
    </g>
</svg>